<svg width="158" height="50" viewBox="0 0 158 50" fill="none" xmlns="http://www.w3.org/2000/svg">
<path d="M22.5768 19.4633L27.7676 26.5739H17.386L22.5768 19.4633Z" fill="#9364D8"/>
<rect x="18.9248" y="25.1713" width="7.30494" height="9.09391" fill="#9364D8"/>
<path d="M7.21743 19.4633L12.4082 26.5739H2.02665L7.21743 19.4633Z" fill="#FFB74E"/>
<rect x="3.56543" y="24.881" width="7.30494" height="9.38414" fill="#FFB74E"/>
<path d="M14.898 6.40295L20.981 14.1666H8.81506L14.898 6.40295Z" fill="#FF7365"/>
<rect x="10.5898" y="13.1749" width="8.61608" height="21.0901" fill="#FF7365"/>
<path d="M14.8975 6.30615L21.4532 14.1424H14.8975V6.30615Z" fill="#FE4449"/>
<rect x="14.8975" y="13.175" width="4.49535" height="21.0901" fill="#FE4449"/>
<path d="M3.5714 34.2649H10.6122L7.55095 41.4587H0L3.5714 34.2649Z" fill="#FEA31E"/>
<path d="M26.2245 34.2649H19.3878L22.449 41.5097H30L26.2245 34.2649Z" fill="#665BDF"/>
<path d="M10.612 34.2649H14.8977V41.5097L7.55078 41.4587L10.612 34.2649Z" fill="#FF5A49"/>
<path d="M14.8975 34.2649H19.3872L22.4484 41.5097H14.8975V34.2649Z" fill="#FD242A"/>
<path d="M66.483 7.352C68.629 7.352 70.137 7.845 71.007 8.831C71.877 9.817 72.312 11.2863 72.312 13.239L69.354 13.529C69.354 12.1563 69.093 11.1993 68.571 10.658C68.0683 10.1167 67.3433 9.846 66.396 9.846C65.468 9.846 64.714 9.991 64.134 10.281C63.5733 10.5517 63.1287 10.919 62.8 11.383C62.4713 11.847 62.2103 12.456 62.017 13.21C61.7077 14.4473 61.553 16.2743 61.553 18.691C61.553 21.0883 61.9687 22.8863 62.8 24.085C63.6507 25.2643 65.0137 25.854 66.889 25.854C67.9523 25.854 68.9383 25.68 69.847 25.332V20.721H65.932L66.222 18.285H72.457V26.985C70.485 27.8937 68.4743 28.348 66.425 28.348C63.467 28.348 61.408 27.449 60.248 25.651C59.3007 24.1623 58.7593 22.2193 58.624 19.822C58.6047 19.2227 58.595 18.517 58.595 17.705C58.595 14.6117 59.2717 12.1177 60.625 10.223C61.9977 8.309 63.9503 7.352 66.483 7.352ZM89.8733 7.7V23.563L90.1053 27.826L87.8433 28.145L87.5533 26.463H87.4373C86.1806 27.7197 84.663 28.348 82.8843 28.348C81.1056 28.348 79.6653 27.8937 78.5633 26.985C77.4613 26.0763 76.9103 24.7037 76.9103 22.867V7.7H79.6943V22.374C79.6943 23.592 80.0616 24.4813 80.7963 25.042C81.5503 25.5833 82.4686 25.854 83.5513 25.854C85.1366 25.854 86.316 25.2547 87.0893 24.056V7.7H89.8733ZM97.8794 7.7V28H95.0954V7.7H97.8794ZM103.11 7.7H109.026C110.302 7.7 111.414 7.91267 112.361 8.338C113.328 8.744 114.082 9.266 114.623 9.904C115.184 10.542 115.638 11.3347 115.986 12.282C116.527 13.8287 116.798 15.7427 116.798 18.024C116.798 20.7307 116.237 23.0217 115.116 24.897C114.536 25.8637 113.734 26.6273 112.709 27.188C111.684 27.7293 110.486 28 109.113 28H103.11V7.7ZM105.894 10.136V25.564H108.794C110.94 25.564 112.342 24.7617 112.999 23.157C113.328 22.3643 113.55 21.5523 113.666 20.721C113.782 19.8897 113.84 18.894 113.84 17.734C113.84 16.574 113.753 15.5687 113.579 14.718C113.424 13.848 113.163 13.0553 112.796 12.34C112.003 10.8707 110.592 10.136 108.562 10.136H105.894ZM126.667 28H123.883V20.692C121.737 15.8007 119.862 11.5377 118.257 7.903L121.07 7.555L125.188 17.995H125.362L129.48 7.555L132.119 7.903L126.667 20.692V28Z" fill="#AC3232"/>
<path d="M40.952 35.655L42.698 42H41.789L41.366 40.335H39.368L38.927 42H38.09L39.845 35.763L40.952 35.655ZM40.358 36.465L39.575 39.597H41.186L40.421 36.465H40.358ZM44.2746 40.56C44.2746 40.854 44.2986 41.079 44.3466 41.235C44.3946 41.385 44.5026 41.547 44.6706 41.721L44.0676 42.198C43.8216 41.94 43.6596 41.721 43.5816 41.541C43.5036 41.361 43.4646 41.055 43.4646 40.623V35.295L44.2746 35.205V40.56ZM46.4807 40.56C46.4807 40.854 46.5047 41.079 46.5527 41.235C46.6007 41.385 46.7087 41.547 46.8767 41.721L46.2737 42.198C46.0277 41.94 45.8657 41.721 45.7877 41.541C45.7097 41.361 45.6707 41.055 45.6707 40.623V35.295L46.4807 35.205V40.56ZM50.7304 37.275H52.0174L51.9094 37.959H50.7304V40.155C50.7304 40.623 50.7694 40.95 50.8474 41.136C50.9314 41.316 51.1174 41.406 51.4054 41.406C51.5674 41.406 51.7264 41.373 51.8824 41.307L52.1164 41.82C52.0444 41.892 51.9124 41.958 51.7204 42.018C51.5284 42.078 51.3544 42.108 51.1984 42.108C50.6704 42.108 50.3254 41.961 50.1634 41.667C50.0014 41.373 49.9204 40.887 49.9204 40.209V37.959H49.1464L49.2364 37.329L49.9204 37.275L49.9654 36.285L50.7304 36.06V37.275ZM53.7329 37.68C54.0869 37.338 54.4889 37.167 54.9389 37.167C55.3949 37.167 55.7549 37.296 56.0189 37.554C56.2889 37.806 56.4239 38.208 56.4239 38.76V42H55.6049V38.814C55.6049 38.196 55.2959 37.887 54.6779 37.887C54.4979 37.887 54.3209 37.932 54.1469 38.022C53.9729 38.106 53.8349 38.205 53.7329 38.319V42H52.9319V35.295L53.7329 35.205V37.257L53.6969 37.671L53.7329 37.68ZM59.5196 37.167C60.0356 37.167 60.4166 37.323 60.6626 37.635C60.8666 37.887 60.9926 38.31 61.0406 38.904C61.0586 39.138 61.0676 39.429 61.0676 39.777L60.6986 39.831H58.3676C58.3676 40.587 58.5686 41.064 58.9706 41.262C59.1386 41.346 59.3696 41.388 59.6636 41.388C59.9576 41.388 60.2966 41.292 60.6806 41.1L60.9326 41.658C60.4346 41.958 59.9336 42.108 59.4296 42.108C58.1456 42.108 57.5036 41.298 57.5036 39.678C57.5036 38.91 57.6716 38.301 58.0076 37.851C58.3496 37.395 58.8536 37.167 59.5196 37.167ZM60.2036 39.192C60.2036 38.712 60.1556 38.376 60.0596 38.184C59.9636 37.986 59.7416 37.887 59.3936 37.887C59.0516 37.887 58.8086 38.004 58.6646 38.238C58.5206 38.466 58.4306 38.784 58.3946 39.192H60.2036ZM68.5243 37.221L69.2713 37.311L68.2183 42H67.1653L66.3643 38.481H66.3103L65.5453 42H64.4923L63.4303 37.311L64.2223 37.221L65.0233 41.19H65.0863L65.9053 37.545L66.8143 37.455L67.6783 41.19H67.7413L68.5243 37.221ZM72.2199 38.706C72.2199 38.16 71.9709 37.887 71.4729 37.887C71.1549 37.887 70.7259 37.971 70.1859 38.139L69.8979 37.572C70.4139 37.302 70.9719 37.167 71.5719 37.167C72.2979 37.167 72.7419 37.383 72.9039 37.815C72.9879 38.037 73.0299 38.331 73.0299 38.697V40.614C73.0299 41.046 73.1529 41.388 73.3989 41.64L72.9219 42.108C72.8139 42.042 72.7029 41.946 72.5889 41.82C72.4809 41.688 72.4059 41.559 72.3639 41.433H72.3369C72.0069 41.883 71.5509 42.108 70.9689 42.108C70.1109 42.108 69.6819 41.661 69.6819 40.767C69.6819 39.975 70.2399 39.498 71.3559 39.336L72.2199 39.21V38.706ZM70.5459 40.866C70.5459 41.214 70.7589 41.388 71.1849 41.388C71.6169 41.388 71.9619 41.238 72.2199 40.938V39.84C71.4639 39.942 70.9989 40.062 70.8249 40.2C70.6389 40.35 70.5459 40.572 70.5459 40.866ZM76.7509 37.239L77.5339 37.329L76.4269 41.064C76.1809 41.904 75.9529 42.513 75.7429 42.891C75.6109 43.125 75.3979 43.332 75.1039 43.512C74.8099 43.698 74.5549 43.794 74.3389 43.8L74.0059 43.143C74.2939 43.119 74.5669 43.011 74.8249 42.819C75.0889 42.627 75.2479 42.378 75.3019 42.072C74.8699 40.722 74.3689 39.138 73.7989 37.32L74.6449 37.23L75.6709 41.091H75.7249L76.7509 37.239ZM81.1318 37.275H82.4188L82.3108 37.959H81.1318V40.155C81.1318 40.623 81.1708 40.95 81.2488 41.136C81.3328 41.316 81.5188 41.406 81.8068 41.406C81.9688 41.406 82.1278 41.373 82.2838 41.307L82.5178 41.82C82.4458 41.892 82.3138 41.958 82.1218 42.018C81.9298 42.078 81.7558 42.108 81.5998 42.108C81.0718 42.108 80.7268 41.961 80.5648 41.667C80.4028 41.373 80.3218 40.887 80.3218 40.209V37.959H79.5478L79.6378 37.329L80.3218 37.275L80.3668 36.285L81.1318 36.06V37.275ZM83.4683 37.932C83.6243 37.698 83.8403 37.512 84.1163 37.374C84.3983 37.236 84.7253 37.167 85.0973 37.167C85.4753 37.167 85.7903 37.239 86.0423 37.383C86.3003 37.527 86.4893 37.728 86.6093 37.986C86.8193 38.448 86.9243 39.015 86.9243 39.687C86.9243 40.335 86.7743 40.884 86.4743 41.334C86.3183 41.574 86.0993 41.763 85.8173 41.901C85.5413 42.039 85.2143 42.108 84.8363 42.108C84.4643 42.108 84.1493 42.036 83.8913 41.892C83.6393 41.748 83.4533 41.544 83.3333 41.28C83.1233 40.824 83.0183 40.26 83.0183 39.588C83.0183 38.94 83.1683 38.388 83.4683 37.932ZM85.7633 38.211C85.6853 38.115 85.5773 38.037 85.4393 37.977C85.3013 37.917 85.1333 37.887 84.9353 37.887C84.7433 37.887 84.5783 37.923 84.4403 37.995C84.3023 38.067 84.1973 38.154 84.1253 38.256C84.0533 38.352 83.9993 38.49 83.9633 38.67C83.9093 38.94 83.8823 39.231 83.8823 39.543C83.8823 39.855 83.8883 40.086 83.9003 40.236C83.9123 40.38 83.9393 40.53 83.9813 40.686C84.0293 40.842 84.0953 40.968 84.1793 41.064C84.3593 41.28 84.6353 41.388 85.0073 41.388C85.1993 41.388 85.3643 41.352 85.5023 41.28C85.6403 41.208 85.7453 41.124 85.8173 41.028C85.8893 40.926 85.9433 40.785 85.9793 40.605C86.0333 40.335 86.0603 40.044 86.0603 39.732C86.0603 39.42 86.0543 39.192 86.0423 39.048C86.0303 38.898 86.0003 38.745 85.9523 38.589C85.9103 38.433 85.8473 38.307 85.7633 38.211ZM92.1757 37.239L92.9587 37.329L91.8517 41.064C91.6057 41.904 91.3777 42.513 91.1677 42.891C91.0357 43.125 90.8227 43.332 90.5287 43.512C90.2347 43.698 89.9797 43.794 89.7637 43.8L89.4307 43.143C89.7187 43.119 89.9917 43.011 90.2497 42.819C90.5137 42.627 90.6727 42.378 90.7267 42.072C90.2947 40.722 89.7937 39.138 89.2237 37.32L90.0697 37.23L91.0957 41.091H91.1497L92.1757 37.239ZM93.9009 37.932C94.0569 37.698 94.2729 37.512 94.5489 37.374C94.8309 37.236 95.1579 37.167 95.5299 37.167C95.9079 37.167 96.2229 37.239 96.4749 37.383C96.7329 37.527 96.9219 37.728 97.0419 37.986C97.2519 38.448 97.3569 39.015 97.3569 39.687C97.3569 40.335 97.2069 40.884 96.9069 41.334C96.7509 41.574 96.5319 41.763 96.2499 41.901C95.9739 42.039 95.6469 42.108 95.2689 42.108C94.8969 42.108 94.5819 42.036 94.3239 41.892C94.0719 41.748 93.8859 41.544 93.7659 41.28C93.5559 40.824 93.4509 40.26 93.4509 39.588C93.4509 38.94 93.6009 38.388 93.9009 37.932ZM96.1959 38.211C96.1179 38.115 96.0099 38.037 95.8719 37.977C95.7339 37.917 95.5659 37.887 95.3679 37.887C95.1759 37.887 95.0109 37.923 94.8729 37.995C94.7349 38.067 94.6299 38.154 94.5579 38.256C94.4859 38.352 94.4319 38.49 94.3959 38.67C94.3419 38.94 94.3149 39.231 94.3149 39.543C94.3149 39.855 94.3209 40.086 94.3329 40.236C94.3449 40.38 94.3719 40.53 94.4139 40.686C94.4619 40.842 94.5279 40.968 94.6119 41.064C94.7919 41.28 95.0679 41.388 95.4399 41.388C95.6319 41.388 95.7969 41.352 95.9349 41.28C96.0729 41.208 96.1779 41.124 96.2499 41.028C96.3219 40.926 96.3759 40.785 96.4119 40.605C96.4659 40.335 96.4929 40.044 96.4929 39.732C96.4929 39.42 96.4869 39.192 96.4749 39.048C96.4629 38.898 96.4329 38.745 96.3849 38.589C96.3429 38.433 96.2799 38.307 96.1959 38.211ZM99.8446 42.108C99.4366 42.108 99.1006 41.982 98.8366 41.73C98.5726 41.478 98.4406 41.088 98.4406 40.56V37.311L99.2506 37.23V40.461C99.2506 41.079 99.5416 41.388 100.124 41.388C100.508 41.388 100.841 41.247 101.123 40.965V37.311L101.933 37.23V40.704L102.005 41.955L101.348 42.045L101.249 41.496H101.213C100.871 41.904 100.415 42.108 99.8446 42.108ZM105.289 37.167C105.445 37.167 105.562 37.182 105.64 37.212C105.724 37.236 105.793 37.257 105.847 37.275C105.901 37.287 105.934 37.296 105.946 37.302L105.802 38.112C105.622 38.052 105.406 38.022 105.154 38.022C104.908 38.022 104.683 38.13 104.479 38.346C104.281 38.556 104.182 38.811 104.182 39.111V42H103.372V38.571L103.3 37.32L103.957 37.23L104.056 38.139H104.092C104.194 37.845 104.347 37.611 104.551 37.437C104.761 37.257 105.007 37.167 105.289 37.167ZM109.981 37.167C110.077 37.167 110.158 37.17 110.224 37.176C110.296 37.182 110.473 37.191 110.755 37.203C111.589 37.239 112.045 37.257 112.123 37.257L112.024 37.779L111.403 37.842C111.553 38.094 111.628 38.394 111.628 38.742C111.628 39.258 111.472 39.666 111.16 39.966C110.848 40.266 110.404 40.416 109.828 40.416C109.738 40.416 109.621 40.41 109.477 40.398C109.357 40.494 109.279 40.563 109.243 40.605C109.207 40.647 109.189 40.695 109.189 40.749C109.189 40.923 109.378 41.028 109.756 41.064L110.431 41.127C110.911 41.157 111.286 41.256 111.556 41.424C111.832 41.586 111.97 41.856 111.97 42.234C111.97 42.618 111.859 42.924 111.637 43.152C111.223 43.584 110.608 43.8 109.792 43.8C108.562 43.8 107.947 43.428 107.947 42.684C107.947 42.39 108.133 42.084 108.505 41.766C108.547 41.73 108.577 41.706 108.595 41.694C108.619 41.676 108.649 41.655 108.685 41.631C108.721 41.601 108.742 41.586 108.748 41.586C108.514 41.448 108.397 41.25 108.397 40.992C108.397 40.836 108.439 40.707 108.523 40.605C108.607 40.503 108.748 40.383 108.946 40.245C108.436 39.999 108.181 39.54 108.181 38.868C108.181 38.34 108.337 37.926 108.649 37.626C108.961 37.32 109.405 37.167 109.981 37.167ZM108.739 42.495C108.739 42.723 108.847 42.891 109.063 42.999C109.285 43.107 109.57 43.161 109.918 43.161C110.272 43.161 110.572 43.107 110.818 42.999C111.07 42.891 111.196 42.72 111.196 42.486C111.196 42.3 111.139 42.171 111.025 42.099C110.965 42.057 110.908 42.024 110.854 42C110.806 41.97 110.722 41.946 110.602 41.928C110.386 41.898 110.158 41.874 109.918 41.856C109.684 41.838 109.468 41.808 109.27 41.766C109.03 41.952 108.88 42.093 108.82 42.189C108.766 42.291 108.739 42.393 108.739 42.495ZM109.855 37.806C109.549 37.806 109.33 37.887 109.198 38.049C109.072 38.211 109.009 38.46 109.009 38.796C109.009 39.462 109.324 39.795 109.954 39.795C110.266 39.795 110.485 39.711 110.611 39.543C110.737 39.375 110.8 39.12 110.8 38.778C110.8 38.13 110.485 37.806 109.855 37.806ZM114.834 37.167C114.99 37.167 115.107 37.182 115.185 37.212C115.269 37.236 115.338 37.257 115.392 37.275C115.446 37.287 115.479 37.296 115.491 37.302L115.347 38.112C115.167 38.052 114.951 38.022 114.699 38.022C114.453 38.022 114.228 38.13 114.024 38.346C113.826 38.556 113.727 38.811 113.727 39.111V42H112.917V38.571L112.845 37.32L113.502 37.23L113.601 38.139H113.637C113.739 37.845 113.892 37.611 114.096 37.437C114.306 37.257 114.552 37.167 114.834 37.167ZM118.283 38.706C118.283 38.16 118.034 37.887 117.536 37.887C117.218 37.887 116.789 37.971 116.249 38.139L115.961 37.572C116.477 37.302 117.035 37.167 117.635 37.167C118.361 37.167 118.805 37.383 118.967 37.815C119.051 38.037 119.093 38.331 119.093 38.697V40.614C119.093 41.046 119.216 41.388 119.462 41.64L118.985 42.108C118.877 42.042 118.766 41.946 118.652 41.82C118.544 41.688 118.469 41.559 118.427 41.433H118.4C118.07 41.883 117.614 42.108 117.032 42.108C116.174 42.108 115.745 41.661 115.745 40.767C115.745 39.975 116.303 39.498 117.419 39.336L118.283 39.21V38.706ZM116.609 40.866C116.609 41.214 116.822 41.388 117.248 41.388C117.68 41.388 118.025 41.238 118.283 40.938V39.84C117.527 39.942 117.062 40.062 116.888 40.2C116.702 40.35 116.609 40.572 116.609 40.866ZM123.084 37.455C123.09 37.455 123.099 37.452 123.111 37.446L123.084 37.212V35.295L123.894 35.205V40.704L123.966 41.955L123.309 42.045L123.21 41.496H123.174C122.814 41.904 122.382 42.108 121.878 42.108C121.374 42.108 120.972 41.931 120.672 41.577C120.372 41.217 120.222 40.581 120.222 39.669C120.222 39.297 120.264 38.961 120.348 38.661C120.432 38.361 120.54 38.121 120.672 37.941C120.804 37.761 120.957 37.611 121.131 37.491C121.437 37.275 121.779 37.167 122.157 37.167C122.535 37.167 122.844 37.263 123.084 37.455ZM122.238 37.887C122.076 37.887 121.938 37.908 121.824 37.95C121.71 37.986 121.593 38.058 121.473 38.166C121.215 38.4 121.086 38.877 121.086 39.597C121.086 40.311 121.167 40.788 121.329 41.028C121.497 41.268 121.764 41.388 122.13 41.388C122.334 41.388 122.523 41.343 122.697 41.253C122.871 41.157 123 41.055 123.084 40.947V38.139C122.85 37.971 122.568 37.887 122.238 37.887ZM126.695 42.108C126.287 42.108 125.951 41.982 125.687 41.73C125.423 41.478 125.291 41.088 125.291 40.56V37.311L126.101 37.23V40.461C126.101 41.079 126.392 41.388 126.974 41.388C127.358 41.388 127.691 41.247 127.973 40.965V37.311L128.783 37.23V40.704L128.855 41.955L128.198 42.045L128.099 41.496H128.063C127.721 41.904 127.265 42.108 126.695 42.108ZM132.302 38.706C132.302 38.16 132.053 37.887 131.555 37.887C131.237 37.887 130.808 37.971 130.268 38.139L129.98 37.572C130.496 37.302 131.054 37.167 131.654 37.167C132.38 37.167 132.824 37.383 132.986 37.815C133.07 38.037 133.112 38.331 133.112 38.697V40.614C133.112 41.046 133.235 41.388 133.481 41.64L133.004 42.108C132.896 42.042 132.785 41.946 132.671 41.82C132.563 41.688 132.488 41.559 132.446 41.433H132.419C132.089 41.883 131.633 42.108 131.051 42.108C130.193 42.108 129.764 41.661 129.764 40.767C129.764 39.975 130.322 39.498 131.438 39.336L132.302 39.21V38.706ZM130.628 40.866C130.628 41.214 130.841 41.388 131.267 41.388C131.699 41.388 132.044 41.238 132.302 40.938V39.84C131.546 39.942 131.081 40.062 130.907 40.2C130.721 40.35 130.628 40.572 130.628 40.866ZM135.501 37.275H136.788L136.68 37.959H135.501V40.155C135.501 40.623 135.54 40.95 135.618 41.136C135.702 41.316 135.888 41.406 136.176 41.406C136.338 41.406 136.497 41.373 136.653 41.307L136.887 41.82C136.815 41.892 136.683 41.958 136.491 42.018C136.299 42.078 136.125 42.108 135.969 42.108C135.441 42.108 135.096 41.961 134.934 41.667C134.772 41.373 134.691 40.887 134.691 40.209V37.959H133.917L134.007 37.329L134.691 37.275L134.736 36.285L135.501 36.06V37.275ZM138.512 42H137.702V37.32L138.512 37.23V42ZM138.071 36.969C137.705 36.969 137.522 36.765 137.522 36.357C137.522 36.207 137.57 36.078 137.666 35.97C137.768 35.862 137.924 35.808 138.134 35.808C138.5 35.808 138.683 36.012 138.683 36.42C138.683 36.57 138.632 36.699 138.53 36.807C138.434 36.915 138.281 36.969 138.071 36.969ZM140.087 37.932C140.243 37.698 140.459 37.512 140.735 37.374C141.017 37.236 141.344 37.167 141.716 37.167C142.094 37.167 142.409 37.239 142.661 37.383C142.919 37.527 143.108 37.728 143.228 37.986C143.438 38.448 143.543 39.015 143.543 39.687C143.543 40.335 143.393 40.884 143.093 41.334C142.937 41.574 142.718 41.763 142.436 41.901C142.16 42.039 141.833 42.108 141.455 42.108C141.083 42.108 140.768 42.036 140.51 41.892C140.258 41.748 140.072 41.544 139.952 41.28C139.742 40.824 139.637 40.26 139.637 39.588C139.637 38.94 139.787 38.388 140.087 37.932ZM142.382 38.211C142.304 38.115 142.196 38.037 142.058 37.977C141.92 37.917 141.752 37.887 141.554 37.887C141.362 37.887 141.197 37.923 141.059 37.995C140.921 38.067 140.816 38.154 140.744 38.256C140.672 38.352 140.618 38.49 140.582 38.67C140.528 38.94 140.501 39.231 140.501 39.543C140.501 39.855 140.507 40.086 140.519 40.236C140.531 40.38 140.558 40.53 140.6 40.686C140.648 40.842 140.714 40.968 140.798 41.064C140.978 41.28 141.254 41.388 141.626 41.388C141.818 41.388 141.983 41.352 142.121 41.28C142.259 41.208 142.364 41.124 142.436 41.028C142.508 40.926 142.562 40.785 142.598 40.605C142.652 40.335 142.679 40.044 142.679 39.732C142.679 39.42 142.673 39.192 142.661 39.048C142.649 38.898 142.619 38.745 142.571 38.589C142.529 38.433 142.466 38.307 142.382 38.211ZM146.706 37.167C147.15 37.167 147.504 37.296 147.768 37.554C148.032 37.806 148.164 38.208 148.164 38.76V42H147.354V38.814C147.354 38.196 147.045 37.887 146.427 37.887C146.247 37.887 146.07 37.932 145.896 38.022C145.722 38.106 145.584 38.205 145.482 38.319V42H144.672V38.571L144.6 37.32L145.257 37.23L145.374 37.761H145.41C145.518 37.623 145.68 37.491 145.896 37.365C146.118 37.233 146.388 37.167 146.706 37.167Z" fill="black" fill-opacity="0.62"/>
</svg>
